mtllib materials.mtl
v 0.152509 0.2366663 -0.007491201
v 0.2025089 0.2232689 -0.007491142
v 0.2025087 0.2232686 0.1925086
v 0.1525087 0.2366661 0.1925085
v 0.2391114 0.1866664 -0.007491142
v 0.2391112 0.1866664 0.1925086
v 0.2525088 0.1366664 -0.007491142
v 0.2525086 0.1366664 0.1925085
v 0.2391114 0.08666658 -0.007491201
v 0.2391112 0.08666635 0.1925085
v 0.2025089 0.05006409 -0.007491291
v 0.2025087 0.05006397 0.1925084
v 0.152509 0.03666663 -0.00749138
v 0.1525087 0.03666651 0.1925084
v 0.102509 0.05006409 -0.00749141
v 0.1025088 0.05006397 0.1925083
v 0.06590655 0.08666658 -0.00749144
v 0.06590632 0.08666646 0.1925083
v 0.05250913 0.1366664 -0.00749141
v 0.05250889 0.1366664 0.1925083
v 0.06590655 0.1866664 -0.00749135
v 0.06590632 0.1866661 0.1925084
v 0.1025091 0.2232689 -0.007491261
v 0.1025088 0.2232689 0.1925085
v -0.1574909 0.2166668 -0.007491082
v -0.107491 0.2032694 -0.007491022
v -0.1074913 0.2032691 0.1925087
v -0.1574912 0.2166666 0.1925086
v -0.07088858 0.1666669 -0.007491022
v -0.07088888 0.1666664 0.1925087
v -0.05749118 0.1166668 -0.007491052
v -0.05749151 0.1166666 0.1925086
v -0.07088867 0.06666696 -0.007491142
v -0.07088897 0.0666666 0.1925085
v -0.1074912 0.03006446 -0.007491261
v -0.1074915 0.03006423 0.1925084
v -0.1574911 0.01666713 -0.00749135
v -0.1574914 0.01666677 0.1925083
v -0.207491 0.03006458 -0.00749141
v -0.2074913 0.03006434 0.1925083
v -0.2440934 0.06666708 -0.00749144
v -0.2440938 0.06666684 0.1925083
v -0.2574908 0.116667 -0.00749138
v -0.2574911 0.1166668 0.1925083
v -0.2440934 0.1666669 -0.007491291
v -0.2440937 0.1666666 0.1925084
v -0.2074908 0.2032694 -0.007491171
v -0.2074911 0.2032691 0.1925085
v 0.03035316 -0.1672649 -0.2517833
v 0.08055192 -0.1907207 -0.2386647
v 0.08031985 -0.1846563 -0.2269337
v 0.03012112 -0.1612004 -0.2400523
v 0.1105971 -0.2334422 -0.2159853
v 0.110365 -0.2273778 -0.2042543
v 0.1124381 -0.283982 -0.1898219
v 0.112206 -0.2779175 -0.178091
v 0.0855816 -0.3287982 -0.1671852
v 0.08534953 -0.3227338 -0.1554543
v 0.03722385 -0.3558823 -0.1541405
v 0.0369918 -0.3498179 -0.1424096
v -0.0196778 -0.3579772 -0.1541831
v -0.01990984 -0.3519126 -0.1424522
v -0.06987655 -0.3345213 -0.1673017
v -0.07010862 -0.328457 -0.1555708
v -0.0999217 -0.2917999 -0.1899812
v -0.1001537 -0.2857355 -0.1782503
v -0.1017627 -0.2412601 -0.2161445
v -0.1019947 -0.2351958 -0.2044136
v -0.07490623 -0.1964439 -0.2387813
v -0.07513827 -0.1903795 -0.2270503
v -0.02654843 -0.1693598 -0.251826
v -0.02678047 -0.1632954 -0.240095
v -0.1291255 -0.1784841 -0.2942514
v 0.0653066 -0.1794361 -0.1836295
v 0.02464563 -0.1604367 -0.1942556
v 0.08964318 -0.2140404 -0.1652592
v 0.0911344 -0.2549776 -0.1440669
v 0.06938064 -0.2912788 -0.1257311
v 0.03021088 -0.3132169 -0.1151649
v -0.01587944 -0.3149136 -0.1151995
v -0.05654044 -0.2959146 -0.1258256
v -0.08087701 -0.2613102 -0.1441959
v -0.0823682 -0.220373 -0.1653882
v -0.06061448 -0.1840719 -0.1837239
v -0.02144465 -0.1621337 -0.1942901
v 0.04678118 -0.1545856 -0.09616429
v 0.01743576 -0.1408737 -0.1038332
v 0.06434515 -0.1795599 -0.08290628
v 0.06542134 -0.2091047 -0.06761158
v 0.04972145 -0.2353036 -0.05437848
v 0.02145225 -0.2511365 -0.04675275
v -0.01181158 -0.2523611 -0.0467777
v -0.04115704 -0.2386494 -0.05444664
v -0.05872098 -0.213675 -0.06770468
v -0.05979718 -0.1841302 -0.08299938
v -0.0440973 -0.1579313 -0.09623247
v -0.01582804 -0.1420983 -0.1038582
v 0.07991427 -0.1014655 -0.0722349
v 0.02792707 -0.07717395 -0.08582091
v 0.1110299 -0.145709 -0.04874751
v 0.1129365 -0.1980493 -0.02165198
v 0.08512312 -0.2444624 0.001791239
v 0.03504252 -0.2725114 0.01530069
v -0.02388641 -0.2746806 0.01525649
v -0.07587367 -0.2503896 0.00167048
v -0.1069893 -0.206146 -0.02181694
v -0.1088958 -0.1538055 -0.04891244
v -0.08108254 -0.1073925 -0.07235566
v -0.03100182 -0.07934344 -0.08586511
v 0.03968662 0.09369111 0.02833244
v 0.2331854 -0.04564846 0.06256351
v 0.2372723 -0.1578444 0.1206452
v 0.1776519 -0.2573347 0.1708978
v 0.07029966 -0.3174602 0.1998565
v -0.05601975 -0.3221104 0.1997618
v -0.1674591 -0.2700405 0.170639
v -0.2341581 -0.1752005 0.1202916
v -0.238245 -0.0630039 0.06221002
v -0.05398744 0.08894849 0.03116223
v 0.2211259 0.02162039 0.007455468
v 0.2680451 0.405342 0.2159887
v 0.3679097 0.1963705 0.383687
v 0.3405855 0.003871083 0.4896005
v 0.2532953 -0.1417931 0.5631753
v 0.08549356 -0.1934298 0.5772847
v -0.2519818 -0.1603955 0.5627965
v -0.3202631 0.02485275 0.5207934
v -0.2373465 0.02650249 0.0171662
v -0.3722534 0.2168006 0.3728022
v -0.3505933 0.374328 0.2155796
v -0.1286321 0.4405025 0.1205594
v -0.1558943 -0.2467216 -0.259505
v -0.1340586 -0.3198556 -0.2212659
v -0.09406845 -0.3767178 -0.1910796
v -0.02725391 -0.4079375 -0.1736187
v 0.04848218 -0.4051492 -0.1735619
v 0.1128464 -0.3691003 -0.1909244
v 0.1585788 -0.3090824 -0.2210465
v 0.1209652 -0.1672629 -0.2951051
v 0.04060212 -0.1287793 -0.3165892
v -0.04835315 -0.1336219 -0.3158454
v -0.1277963 -0.2132174 -0.3614393
v -0.047024 -0.1683552 -0.3830333
v -0.1545652 -0.2814549 -0.3266928
v -0.1327294 -0.3545889 -0.2884537
v -0.09273931 -0.4114511 -0.2582673
v -0.02592477 -0.4426709 -0.2408065
v 0.0498113 -0.4398826 -0.2407497
v 0.1141755 -0.4038336 -0.2581122
v 0.1599079 -0.3438157 -0.2882343
v 0.1666995 -0.2343992 -0.2594938
v 0.1680287 -0.2691325 -0.3266817
v 0.1222943 -0.2019962 -0.362293
v 0.04193124 -0.1635126 -0.3837771
v 0.09631199 0.4373111 0.1206982
v -0.1194507 -0.2402381 0.507146
vn 0.2588191 0.9659258 1.181439E-06
vn 0.7071068 0.7071068 1.486784E-06
vn 0.9659258 0.2588191 1.406848E-06
vn 0.9659258 -0.2588191 9.556842E-07
vn 0.7071068 -0.7071069 2.424577E-07
vn 0.258819 -0.9659258 -5.481467E-07
vn -0.2588192 -0.9659258 -1.179998E-06
vn -0.7071069 -0.7071067 -1.508182E-06
vn -0.9659258 -0.2588192 -1.414553E-06
vn -0.9659258 0.2588192 -9.302545E-07
vn -0.7071068 0.7071068 -2.330158E-07
vn -0.258819 0.9659259 5.473351E-07
vn 1.223919E-06 8.946895E-07 -1
vn -1.223919E-06 -9.089709E-07 1
vn 0.2588197 0.9659256 1.730369E-06
vn 0.7071074 0.7071062 2.081019E-06
vn 0.9659261 0.258818 1.896789E-06
vn 0.9659257 -0.2588197 1.153818E-06
vn 0.7071061 -0.7071075 1.332677E-07
vn 0.2588179 -0.9659262 -9.171837E-07
vn -0.2588198 -0.9659257 -1.732858E-06
vn -0.7071075 -0.7071062 -2.087332E-06
vn -0.9659261 -0.258818 -1.880564E-06
vn -0.9659256 0.2588197 -1.149437E-06
vn -0.7071062 0.7071074 -1.444016E-07
vn -0.2588178 0.9659262 9.160548E-07
vn 1.573611E-06 1.368421E-06 -1
vn -1.573611E-06 -1.373389E-06 1
vn 0.4716617 0.7870738 -0.3975552
vn 0.8492733 0.4756583 -0.2290942
vn 0.9993228 0.03678928 0.0007485689
vn 0.8816048 -0.4119355 0.2303956
vn 0.5276619 -0.7502837 0.3983058
vn 0.03233168 -0.8875914 0.4594955
vn -0.4716606 -0.7870733 0.3975573
vn -0.8492733 -0.4756581 0.2290948
vn -0.9993228 -0.03678952 -0.0007490526
vn -0.881605 0.4119376 -0.2303912
vn -0.5276615 0.7502856 -0.3983024
vn -0.03233355 0.8875939 -0.4594905
vn -0.2943494 0.7868227 0.5424652
vn 0.4156516 0.9088678 0.03454124
vn 0.7546186 0.6293211 0.1857573
vn 0.8893142 0.2353643 0.3920766
vn 0.7836441 -0.1674445 0.5982176
vn 0.4659224 -0.4711705 0.7489424
vn 0.02128005 -0.5944301 0.8038656
vn -0.4311354 -0.5041968 0.7482699
vn -0.770107 -0.2246455 0.5970508
vn -0.9047998 0.1693137 0.3907304
vn -0.7991275 0.5721202 0.1845909
vn -0.4814052 0.8758436 0.03386665
vn -0.03676882 0.9991019 -0.02105609
vn 0.4510583 0.8790685 -0.1542236
vn 0.8158111 0.5782561 0.008498394
vn 0.9607518 0.1543308 0.230517
vn 0.847042 -0.2791175 0.4523422
vn 0.5051494 -0.6059454 0.6145358
vn 0.02668361 -0.7385798 0.6736379
vn -0.4601439 -0.6414833 0.6138133
vn -0.8249022 -0.3406681 0.4510893
vn -0.9698427 0.08325678 0.2290709
vn -0.8561332 0.5167044 0.007245837
vn -0.5142423 0.8435319 -0.1549474
vn -0.0357789 0.9761674 -0.2140494
vn 0.3358965 0.2046554 -0.9193965
vn 0.5945656 -0.008669771 -0.8040004
vn 0.6973521 -0.3093053 -0.6465528
vn 0.6167136 -0.6166873 -0.4892455
vn 0.3742551 -0.8484626 -0.374225
vn 0.03494507 -0.9425218 -0.3323124
vn -0.3102892 -0.873666 -0.3747377
vn -0.5689644 -0.6603379 -0.4901363
vn -0.6717509 -0.3597074 -0.6475812
vn -0.5911133 -0.05232186 -0.8048897
vn -0.3486567 0.1794534 -0.9199103
vn -0.00934816 0.2735137 -0.9618227
vn 0.4254737 0.4823012 -0.76574
vn 0.6485286 0.05298816 -0.7593438
vn 0.7610579 -0.2761414 -0.5869726
vn 0.6727766 -0.6126589 -0.4147539
vn 0.4073382 -0.8664021 -0.2888304
vn 0.03586751 -0.9693767 -0.2429454
vn -0.3420902 -0.8939945 -0.2893928
vn -0.6252837 -0.6604462 -0.4157298
vn -0.737812 -0.331321 -0.5880986
vn -0.6495307 0.005198655 -0.7603176
vn -0.4630147 0.4625356 -0.7560942
vn -0.01985931 0.5563548 -0.8307075
vn 0.08457856 0.4677792 -0.8797893
vn 0.941583 -0.09571993 -0.3228919
vn 0.968538 -0.08567675 -0.2336531
vn 0.8549927 -0.5184978 -0.01215064
vn 0.5135939 -0.8448546 0.1498068
vn 0.03473411 -0.9498588 0.3107441
vn -0.4502999 -0.8803431 0.1490847
vn -0.8145339 -0.5799611 -0.01340484
vn -0.981418 -0.1151916 -0.1534587
vn -0.9482318 -0.1351158 -0.2874026
vn -0.09317256 0.470275 -0.8775878
vn -0.04136319 0.237979 -0.9703892
vn -0.01757014 0.4591508 0.8881846
vn -0.5305163 0.6134201 0.585037
vn -0.762641 0.275237 0.5853403
vn -0.6498701 -0.0546 0.7580816
vn -0.3660724 -0.2886484 0.8846882
vn 0.01270995 -0.3641959 0.9312357
vn 0.3849796 -0.2609986 0.8852517
vn 0.6509889 -0.006708473 0.7590576
vn 0.6500694 0.3678769 0.6648883
vn 0.465933 0.6476987 0.6028208
vn 0.244602 0.8162213 0.523405
vn -0.03232664 0.8679795 0.4955469
vn -0.5244349 0.7520843 -0.3991707
vn -0.9438187 0.2855708 -0.1662993
vn -0.9665739 -0.2350548 0.1023924
vn -0.8492731 -0.4756581 0.229095
vn -0.471662 -0.7870741 0.3975542
vn 0.03233247 -0.8875942 0.45949
vn 0.5276618 -0.7502841 0.3983049
vn 0.8263475 -0.4934321 0.2714309
vn 0.9952042 -0.07746338 0.0597331
vn 0.8566329 0.465026 -0.2234524
vn 0.4805485 0.7828707 -0.3952048
vn -0.05211226 0.8866925 -0.4594136
vn 0.01756933 -0.459153 -0.8881835
vn 0.5006869 0.1468036 -0.8530893
vn 0.004269585 0.2589287 -0.9658871
vn 0.01336637 0.955 0.2963046
vn -0.4241808 0.1375435 -0.8950712
vn -0.04368521 0.8647958 0.5002198
vn 0.9078754 0.1089921 -0.4048247
vn -0.0314219 0.6163942 0.7868106
vn -0.9483601 -0.1490524 -0.2799939
vn 0.009063132 0.7057679 0.7083853
vn -0.6660038 -0.3299828 -0.668992
vn -0.053483 0.5651644 -0.8232428
vn 0.6846212 -0.3845383 -0.6192126
vn 0.945649 -0.2491864 -0.2089358
vn 0.000419539 0.4820088 0.8761663
vn -0.9369659 -0.3336949 -0.1036471
vn 0.05662704 0.6191844 0.7832012
vn -0.9360497 -0.3509087 -0.02596275
vn 0.05336194 0.2394777 0.9694343
vn 0.1221019 -0.9525251 0.2789033
vn -0.468822 -0.8728023 0.1357276
vn -0.09734204 -0.6727727 0.7334177
vn 0.3037108 -0.9087024 0.2863912
vn -0.01171705 0.2988131 0.9542398
vn -0.09479392 0.4744879 -0.8751431
vn 0.0857451 0.4702945 -0.8783342
vn 0.5574168 -0.008078697 0.8301936
vn 0.4762972 0.6427351 0.6000273
vn 0.5839107 0.3204906 0.7458782
vn 0.2519811 0.8163357 0.5197129
vn -0.04270148 0.8619792 0.5051422
vn -0.2935902 0.7886356 0.5402395
vn -0.5073646 0.5406994 0.6709883
vn -0.6242453 0.2074314 0.7531865
vt -0.0235369 -0.02636734
vt -0.02556942 -0.0216067
vt -0.04396313 -0.02945976
vt -0.0419306 -0.0342204
vt 0.0597299 -0.1041569
vt 0.0560512 -0.1005152
vt 0.04198074 -0.1147286
vt 0.04565942 -0.1183703
vt 0.174662 0.07183792
vt 0.1702776 0.06908625
vt 0.1809092 0.05214614
vt 0.1852936 0.0548978
vt 0.1187821 0.1729427
vt 0.1165366 0.1682788
vt 0.1345567 0.1596027
vt 0.1368022 0.1642666
vt 0.08575946 0.1544144
vt 0.0841076 0.1495086
vt 0.1030619 0.1431264
vt 0.1047138 0.1480321
vt 0.05962942 0.07965276
vt 0.05802476 0.07473139
vt 0.07703949 0.06853145
vt 0.07864415 0.07345282
vt 0.02556941 -0.02160672
vt 0.02353689 -0.02636737
vt 0.04193059 -0.03422043
vt 0.04396311 -0.02945979
vt -0.05605126 -0.1005152
vt -0.05972996 -0.1041569
vt -0.04565949 -0.1183703
vt -0.04198079 -0.1147286
vt -0.1702776 0.06908622
vt -0.174662 0.07183787
vt -0.1852936 0.05489776
vt -0.1809092 0.0521461
vt -0.1165366 0.1682788
vt -0.1187821 0.1729427
vt -0.1368022 0.1642666
vt -0.1345567 0.1596027
vt -0.08410759 0.1495086
vt -0.08575945 0.1544144
vt -0.1047138 0.1480321
vt -0.1030619 0.1431263
vt -0.05802475 0.07473137
vt -0.05962941 0.07965274
vt -0.07864414 0.07345281
vt -0.07703948 0.06853144
vt -0.1714261 0.1259623
vt -0.1697892 0.1210516
vt -0.1659162 0.1176172
vt -0.160845 0.1165795
vt -0.1559342 0.1182164
vt -0.1524999 0.1220893
vt -0.1514621 0.1271606
vt -0.153099 0.1320714
vt -0.156972 0.1355057
vt -0.1620433 0.1365435
vt -0.166954 0.1349066
vt -0.1703884 0.1310336
vt 0.1703884 0.1310336
vt 0.166954 0.1349066
vt 0.1620433 0.1365435
vt 0.156972 0.1355057
vt 0.153099 0.1320714
vt 0.1514621 0.1271606
vt 0.1524999 0.1220893
vt 0.1559342 0.1182164
vt 0.160845 0.1165795
vt 0.1659162 0.1176172
vt 0.1697892 0.1210516
vt 0.1714261 0.1259623
vt -0.01198251 -0.05343019
vt -0.01401504 -0.04866955
vt -0.03240873 -0.05652263
vt -0.03037621 -0.06128327
vt 0.07430337 -0.1185834
vt 0.07062467 -0.1149417
vt 0.05655422 -0.1291551
vt 0.06023293 -0.1327968
vt 0.1798216 0.07507642
vt 0.1754371 0.07232475
vt 0.1860688 0.05538464
vt 0.1904532 0.0581363
vt 0.1144635 0.163973
vt 0.112218 0.1593091
vt 0.1302381 0.1506329
vt 0.1324836 0.1552969
vt 0.07831307 0.1322998
vt 0.07666121 0.127394
vt 0.0956155 0.1210117
vt 0.09726735 0.1259175
vt 0.05018641 0.05069182
vt 0.04858175 0.04577044
vt 0.06759646 0.0395705
vt 0.06920113 0.04449187
vt 0.01401502 -0.04866958
vt 0.01198249 -0.05343022
vt 0.03037618 -0.0612833
vt 0.03240871 -0.05652266
vt -0.0706247 -0.1149417
vt -0.0743034 -0.1185834
vt -0.06023297 -0.1327968
vt -0.05655427 -0.1291551
vt -0.1754371 0.07232475
vt -0.1798216 0.07507642
vt -0.1904532 0.05813631
vt -0.1860688 0.05538464
vt -0.112218 0.159309
vt -0.1144635 0.163973
vt -0.1324836 0.1552969
vt -0.1302381 0.1506329
vt -0.07666121 0.127394
vt -0.07831307 0.1322998
vt -0.09726736 0.1259175
vt -0.0956155 0.1210117
vt -0.04858174 0.04577043
vt -0.0501864 0.05069179
vt -0.06920113 0.04449185
vt -0.06759645 0.03957048
vt -0.183501 0.09734068
vt -0.1818641 0.09242994
vt -0.1779911 0.08899557
vt -0.1729198 0.08795781
vt -0.1680091 0.08959471
vt -0.1645747 0.09346769
vt -0.1635369 0.09853896
vt -0.1651738 0.1034497
vt -0.1690468 0.1068841
vt -0.1741181 0.1079219
vt -0.1790288 0.1062849
vt -0.1824632 0.102412
vt 0.1824632 0.102412
vt 0.1790288 0.1062849
vt 0.1741181 0.1079218
vt 0.1690468 0.1068841
vt 0.1651738 0.1034497
vt 0.1635369 0.09853896
vt 0.1645747 0.09346768
vt 0.1680091 0.08959471
vt 0.1729198 0.08795781
vt 0.1779911 0.08899557
vt 0.1818641 0.09242994
vt 0.183501 0.09734068
vt -0.07572059 -0.05725672
vt -0.07671463 -0.05165014
vt -0.07801513 -0.05188072
vt -0.07702111 -0.0574873
vt 0.09616005 -0.09433942
vt 0.09049295 -0.09378634
vt 0.09036466 -0.09510087
vt 0.09603176 -0.09565397
vt 0.1082108 0.1217706
vt 0.107187 0.1161694
vt 0.1084863 0.1159319
vt 0.10951 0.1215331
vt 0.09833551 0.1275431
vt 0.09774397 0.1218799
vt 0.0990576 0.1217427
vt 0.09964915 0.1274059
vt 0.09308089 0.09095351
vt 0.09257049 0.0852824
vt 0.09388594 0.08516402
vt 0.09439634 0.09083511
vt 0.08771022 0.02616539
vt 0.08712463 0.02050156
vt 0.08843841 0.02036573
vt 0.089024 0.02602956
vt 0.07671507 -0.05164971
vt 0.07572106 -0.0572563
vt 0.07702155 -0.05748687
vt 0.07801557 -0.05188029
vt -0.09049268 -0.09378666
vt -0.09615977 -0.09433974
vt -0.09603147 -0.09565428
vt -0.09036438 -0.09510119
vt -0.1071871 0.1161693
vt -0.1082109 0.1217705
vt -0.1095101 0.121533
vt -0.1084863 0.1159318
vt -0.09774346 0.1218802
vt -0.09833498 0.1275434
vt -0.09964861 0.1274062
vt -0.09905709 0.121743
vt -0.09257011 0.0852824
vt -0.09308051 0.0909535
vt -0.09439597 0.09083511
vt -0.09388558 0.08516401
vt -0.08712409 0.02050163
vt -0.08770971 0.02616545
vt -0.08902349 0.02602961
vt -0.08843787 0.02036579
vt 0.04675826 0.100891
vt 0.04698703 0.0952016
vt 0.0546465 0.09302796
vt 0.01918238 -0.04087041
vt 0.01535655 -0.0366532
vt 0.01232706 -0.04013188
vt 0.01542598 -0.04354782
vt 0.1043477 -0.0318229
vt 0.09865443 -0.03172699
vt 0.09911812 -0.03631655
vt 0.1037296 -0.03639423
vt 0.1378848 0.0613598
vt 0.1339782 0.05721735
vt 0.1376821 0.05446779
vt 0.1408464 0.05782317
vt 0.1306852 0.09919451
vt 0.128788 0.09382583
vt 0.1332876 0.09280948
vt 0.1348243 0.09715812
vt 0.1252895 0.0886777
vt 0.1248092 0.08300398
vt 0.1294195 0.08315651
vt 0.1298086 0.08775222
vt 0.1254988 0.05511041
vt 0.126379 0.04948484
vt 0.1308214 0.05072745
vt 0.1301084 0.05528416
vt 0.1323684 0.03446881
vt 0.1352576 0.02956227
vt 0.1389306 0.03235292
vt 0.1365903 0.03632722
vt 0.1019449 0.1122917
vt 0.1076372 0.1121527
vt 0.1072082 0.1167456
vt 0.1025974 0.1168582
vt -0.00380883 0.1591198
vt -0.0008262272 0.1639701
vt -0.005011909 0.1659089
vt -0.007427818 0.1619801
vt -0.03240743 0.1385444
vt -0.03147579 0.1441617
vt -0.03608365 0.1443776
vt -0.03683828 0.1398275
vt -0.03451374 0.09085756
vt -0.03495042 0.09653482
vt -0.03947654 0.09564413
vt -0.03912283 0.09104554
vt -0.02113563 0.02379321
vt -0.02297873 0.02918068
vt -0.0271381 0.027186
vt -0.02564519 0.02282216
vt -0.02044569 -0.06241157
vt -0.02284875 -0.05847491
vt -0.03041582 -0.06384597
vt -0.02868151 -0.06668709
vt 0.102774 -0.06246766
vt 0.09816334 -0.06235049
vt 0.09856971 -0.07162108
vt 0.1018973 -0.07170565
vt 0.1387581 0.07626151
vt 0.1362887 0.07236608
vt 0.144451 0.06795178
vt 0.1462332 0.07076315
vt 0.1257382 0.1089889
vt 0.1246056 0.1045179
vt 0.133737 0.1028668
vt 0.1345544 0.1060936
vt 0.119394 0.08812972
vt 0.1189842 0.08353581
vt 0.1282619 0.08335249
vt 0.1285577 0.08666797
vt 0.1182527 0.04004005
vt 0.1184669 0.03543287
vt 0.1276844 0.03650378
vt 0.1275298 0.03982883
vt 0.1251891 -0.005806508
vt 0.1263826 -0.01026155
vt 0.1351584 -0.007246063
vt 0.1342971 -0.004030813
vt 0.1051796 0.1043203
vt 0.1097857 0.1040848
vt 0.1096175 0.1133628
vt 0.1062932 0.1135327
vt -0.05331244 0.1542453
vt -0.05206557 0.1586858
vt -0.06115163 0.1605705
vt -0.06205152 0.1573659
vt -0.06737976 0.1355625
vt -0.06714243 0.1401685
vt -0.07642047 0.140004
vt -0.07659175 0.1366798
vt -0.06600355 0.08852535
vt -0.06639263 0.09312107
vt -0.07556277 0.09170067
vt -0.07528196 0.08838389
vt -0.05512159 0.01721448
vt -0.05622433 0.02169286
vt -0.06505968 0.01885637
vt -0.06426381 0.01562427
vt -0.144797 0.09859993
vt -0.1423188 0.1008222
vt -0.1457544 0.106577
vt -0.1501447 0.1026402
vt -0.1055514 0.1409142
vt -0.102223 0.140958
vt -0.1010256 0.1475525
vt -0.106922 0.1474749
vt -0.04223015 0.1626203
vt -0.03970657 0.1604497
vt -0.03444342 0.1645996
vt -0.03891409 0.1684448
vt -0.005342819 0.1424046
vt -0.004221889 0.1392703
vt 0.002404555 0.1402764
vt 0.000418763 0.1458289
vt 0.003362101 0.09771134
vt 0.003178468 0.09438778
vt 0.009675835 0.0927427
vt 0.01000115 0.09863059
vt -0.009653838 0.04226897
vt -0.01110144 0.03927159
vt -0.005736329 0.03525443
vt -0.003171805 0.04056446
vt -0.04623518 -0.002386886
vt -0.04891556 -0.004360547
vt -0.04604914 -0.01041907
vt -0.04130068 -0.006922614
vt -0.1003259 -0.003407667
vt -0.1036543 -0.003444665
vt -0.1048652 -0.01003676
vt -0.09896871 -0.009971214
vt -0.1381868 0.03796809
vt -0.1409038 0.03989094
vt -0.145752 0.0352631
vt -0.1409386 0.03185666
vt -0.1502529 0.0730098
vt -0.1517433 0.07598614
vt -0.1582002 0.07418897
vt -0.1555599 0.06891621
vt -0.1526903 0.08424722
vt -0.1529163 0.08756818
vt -0.1595666 0.0884027
vt -0.1591662 0.08251942
vt -0.1525958 0.08434572
vt -0.1515207 0.08749594
vt -0.1573315 0.090836
vt -0.1592362 0.08525519
vt -0.1576093 0.04875537
vt -0.1544504 0.05373478
vt -0.1765609 0.05678507
vt -0.1071533 0.14684
vt -0.101257 0.1469272
vt -0.09816691 0.165998
vt -0.02622585 0.1731951
vt -0.02199043 0.1690922
vt -0.006332681 0.1804093
vt -0.01541168 0.1892044
vt 0.01477221 0.1482657
vt 0.01652532 0.1426355
vt 0.03569062 0.1450715
vt 0.03193268 0.1571405
vt 0.02342556 0.09777538
vt 0.02306251 0.09188969
vt 0.04184183 0.0873531
vt 0.04262006 0.0999696
vt 0.00957031 0.03424502
vt 0.007142602 0.02887105
vt 0.02309054 0.01796661
vt 0.02829454 0.02948619
vt -0.03168147 -0.02019202
vt -0.03629447 -0.02386533
vt -0.02708225 -0.04084706
vt -0.01719387 -0.03297298
vt -0.09880975 -0.02248102
vt -0.1047062 -0.02255207
vt -0.1078486 -0.04161432
vt -0.09520899 -0.04146203
vt -0.1445927 0.0306494
vt -0.1492753 0.03423364
vt -0.1635153 0.02117738
vt -0.1534778 0.01349424
vt -0.1566474 0.0716233
vt -0.1591471 0.07696415
vt -0.1724473 0.06050545
vt -0.1506107 0.08077112
vt -0.1511059 0.08664718
vt -0.1716664 0.08829796
vt -0.153819 0.05774079
vt -0.1527626 0.06354228
vt -0.1726089 0.06899811
vt -0.1761607 0.07623333
vt -0.1640609 0.09169608
vt -0.2047187 0.1083164
vt 0.05150278 0.1908114
vt 0.05695375 0.1839295
vt 0.09223662 0.2074574
vt 0.08339785 0.1728021
vt 0.08692048 0.1606624
vt 0.1275786 0.169406
vt 0.1012749 0.1462931
vt 0.1019654 0.1336714
vt 0.1435478 0.1330087
vt 0.1425368 0.1514881
vt 0.1011229 0.09422482
vt 0.1000587 0.0816292
vt 0.1427067 0.09365495
vt 0.10356 0.01924543
vt 0.1011648 0.006833942
vt 0.1429273 0.01368807
vt 0.05382092 -0.07328597
vt 0.04716837 -0.08403423
vt 0.08089888 -0.1083609
vt -0.09330811 -0.09676428
vt -0.1059447 -0.09708077
vt -0.08933711 -0.138162
vt -0.1597015 0.06721266
vt -0.1652085 0.0785905
vt -0.2005752 0.04702091
vt -0.1711193 0.06006941
vt -0.1766245 0.06844224
vt -0.2126436 0.04582531
vt -0.1759358 0.05349693
vt -0.1772719 0.07287151
vt -0.2175394 0.05255438
vt -0.177684 0.09226151
vt -0.1746184 0.1011303
vt -0.2141744 0.09858532
vt 0.07780398 0.1206862
vt 0.06841003 0.1047405
vt 0.09330535 0.06073217
vt 0.04509298 0.1297003
vt 0.0429043 0.1244437
vt 0.04873684 0.1206512
vt 0.04563051 0.1528262
vt 0.0415476 0.1488574
vt 0.04458798 0.1443776
vt 0.1066363 0.1183517
vt 0.1009429 0.1184362
vt 0.09992158 0.1131194
vt 0.1074995 0.1130069
vt 0.1335912 0.07116173
vt 0.1295923 0.0752153
vt 0.1251351 0.07214203
vt 0.1304576 0.06674673
vt 0.1321909 0.06966473
vt 0.1305775 0.07512539
vt 0.1251976 0.07451849
vt 0.127345 0.06725034
vt 0.1303336 0.0839169
vt 0.1307506 0.08959563
vt 0.1255026 0.09092592
vt 0.1249475 0.08336754
vt 0.1309188 0.08384608
vt 0.1333287 0.089005
vt 0.1256896 0.08524869
vt 0.1234939 0.05625162
vt 0.1281746 0.05949397
vt 0.1192813 0.06067811
vt 0.0995728 0.03916728
vt 0.1052665 0.03911016
vt 0.1072131 0.04617423
vt 0.07231246 0.04156262
vt 0.077065 0.0384265
vt 0.08289488 0.04331245
vt 0.05193239 0.0672565
vt 0.0546027 0.06222745
vt 0.06207342 0.06387056
vt -0.08916707 0.09217171
vt -0.08831659 0.08272145
vt -0.0807824 0.0833995
vt -0.08163289 0.09284977
vt -0.0968192 0.1350935
vt -0.09588108 0.127036
vt -0.08836721 0.1279109
vt -0.08930531 0.1359683
vt -0.1171245 0.103185
vt -0.1145496 0.09504588
vt -0.1073373 0.09732756
vt -0.1099122 0.1054667
vt -0.09748673 -0.09044353
vt -0.08994383 -0.08970734
vt -0.09067862 -0.08217849
vt -0.09822153 -0.08291467
vt 0.07161047 -0.05748525
vt 0.07293354 -0.05002289
vt 0.06548507 -0.04870226
vt 0.064162 -0.05616463
vt 0.08304138 0.01997617
vt 0.08382085 0.02751472
vt 0.07629632 0.02829273
vt 0.07551686 0.02075418
vt 0.08849518 0.08470301
vt 0.08917452 0.09225125
vt 0.08164033 0.09292932
vt 0.080961 0.08538108
vt 0.09263487 0.1183673
vt 0.0934338 0.1264526
vt 0.08590583 0.1271964
vt 0.08510689 0.1191112
vt 0.1000628 0.1241174
vt 0.1013145 0.1324631
vt 0.09383354 0.1335851
vt 0.09258182 0.1252394
vt 0.1040358 -0.07453133
vt 0.11289 -0.07400744
vt 0.1124432 -0.066456
vt 0.103589 -0.0669799
vt -0.07257511 -0.05139248
vt -0.07094786 -0.06041246
vt -0.06350339 -0.05906943
vt -0.06513064 -0.05004947
vt -0.08412051 0.0308395
vt -0.08321411 0.02197672
vt -0.07568873 0.02274636
vt -0.07659512 0.03160914
vt -0.1199046 0.09919614
vt -0.1198573 0.0897078
vt -0.1147108 0.08343755
vt -0.1065267 0.08100908
vt -0.09894828 0.08107565
vt -0.09241842 0.08492251
vt -0.08868685 0.09151893
vt -0.08875343 0.09909739
vt -0.09210826 0.106497
vt -0.09885924 0.1115608
vt -0.1077288 0.111608
vt -0.1156725 0.1070357
vt -0.164977 0.1739028
vt -0.1772735 0.1582586
vt -0.151446 0.1331377
vt -0.1747103 0.100194
vt -0.2057827 0.1184322
vt -0.2142628 0.09759506
vt 0.01882423 0.02012583
vt 0.00880015 0.0402658
vt -0.007795949 0.05124374
vt -0.178833 0.08964278
vt -0.2153944 0.09554185
vt -0.2198609 0.0709086
vt 0.05713755 0.03208879
vt 0.05646633 0.0571147
vt 0.0284618 0.08699284
vt 0.0463369 0.2170339
vt 0.0230086 0.2335698
vt 0.01053059 0.1914557
vt 0.124148 0.07194887
vt 0.09383593 0.1259668
vt 0.06577467 0.1204701
vt -0.1770116 0.06604788
vt -0.2186022 0.06464181
vt -0.2127884 0.04304947
vt 0.09120895 0.03983691
vt 0.1091119 0.05323513
vt 0.05091392 0.1019665
vt -0.1502268 0.04466336
vt -0.16921 0.03269502
vt -0.1612541 0.02660285
vt -0.1718131 0.06982395
vt -0.1734626 0.06058639
vt -0.1529184 0.05874329
vt -0.01953263 0.1823463
vt -0.02711389 0.1867734
vt -0.03515273 0.1680707
vt 0.1249092 0.1727334
vt 0.118793 0.1940124
vt 0.08067943 0.1754167
vt 0.1335239 0.06795394
vt 0.09299368 0.1299303
vt 0.07566178 0.1161532
vt -0.1721887 0.01603149
vt -0.2104841 -0.005430604
vt -0.1955532 -0.02521828
vt 0.09075499 0.03626887
vt 0.1141225 0.04454206
vt 0.05629506 0.09278306
vt -0.163904 0.004656962
vt -0.1963593 -0.02735903
vt -0.1786885 -0.03711495
vt 0.12927 0.06585743
vt 0.1491684 0.06924666
vt 0.1154908 0.1262305
vt 0.09932698 0.01812497
vt 0.1293733 0.005904742
vt 0.1411364 0.02468653
vt 0.07533542 -0.1124132
vt 0.07523642 -0.09597074
vt 0.04919288 -0.07663555
vt 0.1793045 0.05415912
vt 0.1739555 0.03265299
vt 0.1853032 0.02075367
vt 0.1075874 0.054373
vt 0.1470262 0.04934849
vt 0.1501546 0.06668175
vt 0.09303601 0.1154828
vt 0.09689529 0.0982975
vt 0.1170366 0.07098016
vt -0.1771245 0.07251097
vt -0.1757467 0.05313931
vt -0.1563064 0.06434993
vt -0.1539101 0.07366131
vt -0.164049 0.09131403
vt -0.1761243 0.07583214
vt 0.1329741 0.09049723
vt 0.1282755 0.09440403
vt 0.1252818 0.08685107
vt 0.1080453 0.04553383
vt 0.09917583 0.04547962
vt 0.1004369 0.03849224
vt 0.1289638 0.07039654
vt 0.1264437 0.07703455
vt 0.1200617 0.07151301
vt 0.08307251 0.04213715
vt 0.0753772 0.04711611
vt 0.07249112 0.04038108
vt 0.06274396 0.06611623
vt 0.0586905 0.0740497
vt 0.05259986 0.06949293
vt 0.05435524 0.09276044
vt 0.05394192 0.1022399
vt 0.04646567 0.1006222
vt 0.064238 0.1218613
vt 0.06860831 0.1286952
vt 0.06100758 0.1310661
vt 0.08208908 0.1288487
vt 0.08997519 0.1321175
vt 0.08490546 0.1368819
o group70728509
g mesh70728509
usemtl mat24
f 4/4/1 3/3/1 2/2/1 1/1/1
f 3/8/2 6/7/2 5/6/2 2/5/2
f 6/12/3 8/11/3 7/10/3 5/9/3
f 8/16/4 10/15/4 9/14/4 7/13/4
f 10/20/5 12/19/5 11/18/5 9/17/5
f 12/24/6 14/23/6 13/22/6 11/21/6
f 14/28/7 16/27/7 15/26/7 13/25/7
f 16/32/8 18/31/8 17/30/8 15/29/8
f 18/36/9 20/35/9 19/34/9 17/33/9
f 20/40/10 22/39/10 21/38/10 19/37/10
f 22/44/11 24/43/11 23/42/11 21/41/11
f 24/48/12 4/47/12 1/46/12 23/45/12
f 1/60/13 2/59/13 5/58/13 7/57/13 9/56/13 11/55/13 13/54/13 15/53/13 17/52/13 19/51/13 21/50/13 23/49/13
f 24/72/14 22/71/14 20/70/14 18/69/14 16/68/14 14/67/14 12/66/14 10/65/14 8/64/14 6/63/14 3/62/14 4/61/14
o group1235149680
g mesh1235149680
usemtl mat24
f 28/76/15 27/75/15 26/74/15 25/73/15
f 27/80/16 30/79/16 29/78/16 26/77/16
f 30/84/17 32/83/17 31/82/17 29/81/17
f 32/88/18 34/87/18 33/86/18 31/85/18
f 34/92/19 36/91/19 35/90/19 33/89/19
f 36/96/20 38/95/20 37/94/20 35/93/20
f 38/100/21 40/99/21 39/98/21 37/97/21
f 40/104/22 42/103/22 41/102/22 39/101/22
f 42/108/23 44/107/23 43/106/23 41/105/23
f 44/112/24 46/111/24 45/110/24 43/109/24
f 46/116/25 48/115/25 47/114/25 45/113/25
f 48/120/26 28/119/26 25/118/26 47/117/26
f 25/132/27 26/131/27 29/130/27 31/129/27 33/128/27 35/127/27 37/126/27 39/125/27 41/124/27 43/123/27 45/122/27 47/121/27
f 48/144/28 46/143/28 44/142/28 42/141/28 40/140/28 38/139/28 36/138/28 34/137/28 32/136/28 30/135/28 27/134/28 28/133/28
o group574527305
g mesh574527305
usemtl mat23
f 52/148/29 51/147/29 50/146/29 49/145/29
f 51/152/30 54/151/30 53/150/30 50/149/30
f 54/156/31 56/155/31 55/154/31 53/153/31
f 56/160/32 58/159/32 57/158/32 55/157/32
f 58/164/33 60/163/33 59/162/33 57/161/33
f 60/168/34 62/167/34 61/166/34 59/165/34
f 62/172/35 64/171/35 63/170/35 61/169/35
f 64/176/36 66/175/36 65/174/36 63/173/36
f 66/180/37 68/179/37 67/178/37 65/177/37
f 68/184/38 70/183/38 69/182/38 67/181/38
f 70/188/39 72/187/39 71/186/39 69/185/39
f 72/192/40 52/191/40 49/190/40 71/189/40
f 73/195/41 69/194/41 71/193/41
f 75/199/42 74/198/42 51/197/42 52/196/42
f 74/203/43 76/202/43 54/201/43 51/200/43
f 76/207/44 77/206/44 56/205/44 54/204/44
f 77/211/45 78/210/45 58/209/45 56/208/45
f 78/215/46 79/214/46 60/213/46 58/212/46
f 79/219/47 80/218/47 62/217/47 60/216/47
f 80/223/48 81/222/48 64/221/48 62/220/48
f 81/227/49 82/226/49 66/225/49 64/224/49
f 82/231/50 83/230/50 68/229/50 66/228/50
f 83/235/51 84/234/51 70/233/51 68/232/51
f 84/239/52 85/238/52 72/237/52 70/236/52
f 85/243/53 75/242/53 52/241/53 72/240/53
f 87/247/54 86/246/54 74/245/54 75/244/54
f 86/251/55 88/250/55 76/249/55 74/248/55
f 88/255/56 89/254/56 77/253/56 76/252/56
f 89/259/57 90/258/57 78/257/57 77/256/57
f 90/263/58 91/262/58 79/261/58 78/260/58
f 91/267/59 92/266/59 80/265/59 79/264/59
f 92/271/60 93/270/60 81/269/60 80/268/60
f 93/275/61 94/274/61 82/273/61 81/272/61
f 94/279/62 95/278/62 83/277/62 82/276/62
f 95/283/63 96/282/63 84/281/63 83/280/63
f 96/287/64 97/286/64 85/285/64 84/284/64
f 97/291/65 87/290/65 75/289/65 85/288/65
f 99/295/66 98/294/66 86/293/66 87/292/66
f 98/299/67 100/298/67 88/297/67 86/296/67
f 100/303/68 101/302/68 89/301/68 88/300/68
f 101/307/69 102/306/69 90/305/69 89/304/69
f 102/311/70 103/310/70 91/309/70 90/308/70
f 103/315/71 104/314/71 92/313/71 91/312/71
f 104/319/72 105/318/72 93/317/72 92/316/72
f 105/323/73 106/322/73 94/321/73 93/320/73
f 106/327/74 107/326/74 95/325/74 94/324/74
f 107/331/75 108/330/75 96/329/75 95/328/75
f 108/335/76 109/334/76 97/333/76 96/332/76
f 109/339/77 99/338/77 87/337/77 97/336/77
f 110/342/78 98/341/78 99/340/78
f 111/345/79 100/344/79 98/343/79
f 111/349/80 112/348/80 101/347/80 100/346/80
f 112/353/81 113/352/81 102/351/81 101/350/81
f 113/357/82 114/356/82 103/355/82 102/354/82
f 114/361/83 115/360/83 104/359/83 103/358/83
f 115/365/84 116/364/84 105/363/84 104/362/84
f 116/369/85 117/368/85 106/367/85 105/366/85
f 117/373/86 118/372/86 107/371/86 106/370/86
f 118/376/87 108/375/87 107/374/87
f 119/379/88 109/378/88 108/377/88
f 110/382/89 99/381/89 109/380/89
f 121/385/90 120/384/90 110/383/90
f 122/388/91 111/387/91 120/386/91
f 123/391/92 112/390/92 111/389/92
f 123/395/93 124/394/93 113/393/93 112/392/93
f 124/398/94 114/397/94 113/396/94
f 125/401/95 115/400/95 114/399/95
f 126/404/96 116/403/96 115/402/96
f 126/407/97 117/406/97 116/405/97
f 127/410/98 118/409/98 117/408/98
f 129/413/99 128/412/99 118/411/99
f 130/416/100 119/415/100 128/414/100
f 131/419/101 110/418/101 119/417/101
f 126/422/102 124/421/102 123/420/102
f 132/425/103 67/424/103 69/423/103
f 133/428/104 65/427/104 67/426/104
f 133/432/105 134/431/105 63/430/105 65/429/105
f 134/436/106 135/435/106 61/434/106 63/433/106
f 135/440/107 136/439/107 59/438/107 61/437/107
f 136/444/108 137/443/108 57/442/108 59/441/108
f 137/447/109 55/446/109 57/445/109
f 138/450/110 53/449/110 55/448/110
f 139/453/111 50/452/111 53/451/111
f 140/456/112 49/455/112 50/454/112
f 141/459/113 71/458/113 49/457/113
f 143/463/114 142/462/114 73/461/114 141/460/114
f 142/467/115 144/466/115 132/465/115 73/464/115
f 144/471/116 145/470/116 133/469/116 132/468/116
f 145/475/117 146/474/117 134/473/117 133/472/117
f 146/479/118 147/478/118 135/477/118 134/476/118
f 147/483/119 148/482/119 136/481/119 135/480/119
f 148/487/120 149/486/120 137/485/120 136/484/120
f 149/491/121 150/490/121 138/489/121 137/488/121
f 150/495/122 152/494/122 151/493/122 138/492/122
f 152/499/123 153/498/123 139/497/123 151/496/123
f 153/503/124 154/502/124 140/501/124 139/500/124
f 154/507/125 143/506/125 141/505/125 140/504/125
f 154/519/126 153/518/126 152/517/126 150/516/126 149/515/126 148/514/126 147/513/126 146/512/126 145/511/126 144/510/126 142/509/126 143/508/126
f 110/522/127 155/521/127 121/520/127
f 131/525/128 155/524/128 110/523/128
f 121/528/129 155/527/129 131/526/129
f 130/531/130 131/530/130 119/529/130
f 121/534/131 131/533/131 130/532/131
f 120/537/132 121/536/132 122/535/132
f 122/540/133 121/539/133 130/538/133
f 129/543/134 130/542/134 128/541/134
f 122/546/135 130/545/135 129/544/135
f 118/549/136 128/548/136 108/547/136
f 109/552/137 119/551/137 110/550/137
f 98/555/138 120/554/138 111/553/138
f 111/558/139 122/557/139 123/556/139
f 123/561/140 122/560/140 129/559/140
f 127/564/141 129/563/141 118/562/141
f 123/567/142 129/566/142 127/565/142
f 126/570/143 127/569/143 117/568/143
f 123/573/144 127/572/144 126/571/144
f 125/576/145 156/575/145 115/574/145
f 115/579/146 156/578/146 126/577/146
f 126/582/147 156/581/147 125/580/147
f 124/585/148 125/584/148 114/583/148
f 126/588/149 125/587/149 124/586/149
f 108/591/150 128/590/150 119/589/150
f 110/594/151 120/593/151 98/592/151
f 137/597/152 138/596/152 55/595/152
f 53/600/153 151/599/153 139/598/153
f 138/603/154 151/602/154 53/601/154
f 50/606/155 139/605/155 140/604/155
f 49/609/156 140/608/156 141/607/156
f 71/612/157 141/611/157 73/610/157
f 69/615/158 73/614/158 132/613/158
f 67/618/159 132/617/159 133/616/159
